<mxfile host="app.diagrams.net" modified="2022-06-07T03:24:58.582Z" agent="5.0 (Windows NT 10.0; Win64; x64) AppleWebKit/537.36 (KHTML, like Gecko) Chrome/102.0.0.0 Safari/537.36" etag="rogS9I1si1fmwTzBQL4o" version="19.0.0" type="github" pages="2">
  <diagram id="C5RBs43oDa-KdzZeNtuy" name="flow">
    <mxGraphModel dx="1680" dy="665" grid="1" gridSize="10" guides="1" tooltips="1" connect="1" arrows="1" fold="1" page="1" pageScale="1" pageWidth="827" pageHeight="1169" math="0" shadow="0">
      <root>
        <mxCell id="WIyWlLk6GJQsqaUBKTNV-0" />
        <mxCell id="WIyWlLk6GJQsqaUBKTNV-1" parent="WIyWlLk6GJQsqaUBKTNV-0" />
        <mxCell id="GxpNQqLrR4lgnH7dVVDZ-0" value="&lt;font style=&quot;font-size: 14px;&quot;&gt;IR&lt;/font&gt;" style="rounded=1;whiteSpace=wrap;html=1;" vertex="1" parent="WIyWlLk6GJQsqaUBKTNV-1">
          <mxGeometry x="230" y="40" width="90" height="50" as="geometry" />
        </mxCell>
        <mxCell id="GxpNQqLrR4lgnH7dVVDZ-2" value="&lt;font style=&quot;font-size: 14px;&quot;&gt;Bytecode&lt;/font&gt;" style="rounded=1;whiteSpace=wrap;html=1;" vertex="1" parent="WIyWlLk6GJQsqaUBKTNV-1">
          <mxGeometry x="230" y="190" width="90" height="50" as="geometry" />
        </mxCell>
        <mxCell id="GxpNQqLrR4lgnH7dVVDZ-5" value="" style="endArrow=none;dashed=1;html=1;" edge="1" parent="WIyWlLk6GJQsqaUBKTNV-1">
          <mxGeometry width="50" height="50" relative="1" as="geometry">
            <mxPoint x="-5" y="260" as="sourcePoint" />
            <mxPoint x="555" y="260" as="targetPoint" />
          </mxGeometry>
        </mxCell>
        <mxCell id="GxpNQqLrR4lgnH7dVVDZ-6" value="&lt;b&gt;&lt;font style=&quot;font-size: 17px;&quot;&gt;Runtime&lt;/font&gt;&lt;/b&gt;" style="text;html=1;align=center;verticalAlign=middle;resizable=0;points=[];autosize=1;strokeColor=none;fillColor=none;" vertex="1" parent="WIyWlLk6GJQsqaUBKTNV-1">
          <mxGeometry x="10" y="270" width="80" height="20" as="geometry" />
        </mxCell>
        <mxCell id="GxpNQqLrR4lgnH7dVVDZ-7" value="&lt;font style=&quot;font-size: 14px;&quot;&gt;Actor #1&lt;/font&gt;" style="rounded=1;whiteSpace=wrap;html=1;" vertex="1" parent="WIyWlLk6GJQsqaUBKTNV-1">
          <mxGeometry x="90.75" y="510" width="90" height="50" as="geometry" />
        </mxCell>
        <mxCell id="GxpNQqLrR4lgnH7dVVDZ-8" value="&lt;font style=&quot;font-size: 14px;&quot;&gt;Scheduler&lt;br&gt;Dispatcher&lt;/font&gt;" style="rounded=1;whiteSpace=wrap;html=1;" vertex="1" parent="WIyWlLk6GJQsqaUBKTNV-1">
          <mxGeometry x="230" y="320" width="90" height="50" as="geometry" />
        </mxCell>
        <mxCell id="GxpNQqLrR4lgnH7dVVDZ-9" value="&lt;font style=&quot;font-size: 14px;&quot;&gt;Actor #2&lt;/font&gt;" style="rounded=1;whiteSpace=wrap;html=1;" vertex="1" parent="WIyWlLk6GJQsqaUBKTNV-1">
          <mxGeometry x="230.75" y="510" width="90" height="50" as="geometry" />
        </mxCell>
        <mxCell id="GxpNQqLrR4lgnH7dVVDZ-10" value="&lt;font style=&quot;font-size: 14px;&quot;&gt;Actor #3&lt;/font&gt;" style="rounded=1;whiteSpace=wrap;html=1;" vertex="1" parent="WIyWlLk6GJQsqaUBKTNV-1">
          <mxGeometry x="369.25" y="510" width="90" height="50" as="geometry" />
        </mxCell>
        <mxCell id="GxpNQqLrR4lgnH7dVVDZ-16" value="" style="endArrow=classic;startArrow=classic;html=1;entryX=0;entryY=0.5;entryDx=0;entryDy=0;exitX=1;exitY=0.5;exitDx=0;exitDy=0;" edge="1" parent="WIyWlLk6GJQsqaUBKTNV-1" source="GxpNQqLrR4lgnH7dVVDZ-7" target="GxpNQqLrR4lgnH7dVVDZ-9">
          <mxGeometry width="50" height="50" relative="1" as="geometry">
            <mxPoint x="110.75" y="720" as="sourcePoint" />
            <mxPoint x="250.75" y="580" as="targetPoint" />
          </mxGeometry>
        </mxCell>
        <mxCell id="GxpNQqLrR4lgnH7dVVDZ-17" value="" style="endArrow=classic;startArrow=classic;html=1;entryX=0;entryY=0.5;entryDx=0;entryDy=0;exitX=1;exitY=0.5;exitDx=0;exitDy=0;" edge="1" parent="WIyWlLk6GJQsqaUBKTNV-1" source="GxpNQqLrR4lgnH7dVVDZ-9" target="GxpNQqLrR4lgnH7dVVDZ-10">
          <mxGeometry width="50" height="50" relative="1" as="geometry">
            <mxPoint x="200.75" y="720" as="sourcePoint" />
            <mxPoint x="340.75" y="580" as="targetPoint" />
          </mxGeometry>
        </mxCell>
        <mxCell id="mCp2D2DZsQye_z4wcUXH-2" value="" style="endArrow=classic;rounded=0;fontSize=16;entryX=0.5;entryY=0;entryDx=0;entryDy=0;exitX=0.5;exitY=1;exitDx=0;exitDy=0;labelBorderColor=none;html=1;verticalAlign=middle;startArrow=block;startFill=1;" edge="1" parent="WIyWlLk6GJQsqaUBKTNV-1" source="GxpNQqLrR4lgnH7dVVDZ-8" target="GxpNQqLrR4lgnH7dVVDZ-9">
          <mxGeometry relative="1" as="geometry">
            <mxPoint x="380" y="350" as="sourcePoint" />
            <mxPoint x="480" y="350" as="targetPoint" />
          </mxGeometry>
        </mxCell>
        <mxCell id="mCp2D2DZsQye_z4wcUXH-3" value="Dispatch" style="edgeLabel;resizable=0;html=1;align=center;verticalAlign=middle;fontSize=14;" connectable="0" vertex="1" parent="mCp2D2DZsQye_z4wcUXH-2">
          <mxGeometry relative="1" as="geometry" />
        </mxCell>
        <mxCell id="mCp2D2DZsQye_z4wcUXH-6" value="" style="endArrow=classic;startArrow=classic;html=1;entryX=0.5;entryY=0;entryDx=0;entryDy=0;exitX=0.5;exitY=1;exitDx=0;exitDy=0;" edge="1" parent="WIyWlLk6GJQsqaUBKTNV-1" source="GxpNQqLrR4lgnH7dVVDZ-8" target="GxpNQqLrR4lgnH7dVVDZ-7">
          <mxGeometry width="50" height="50" relative="1" as="geometry">
            <mxPoint x="365" y="400" as="sourcePoint" />
            <mxPoint x="413.5" y="400" as="targetPoint" />
            <Array as="points" />
          </mxGeometry>
        </mxCell>
        <mxCell id="mCp2D2DZsQye_z4wcUXH-7" value="" style="endArrow=classic;startArrow=classic;html=1;entryX=0.5;entryY=0;entryDx=0;entryDy=0;exitX=0.5;exitY=1;exitDx=0;exitDy=0;" edge="1" parent="WIyWlLk6GJQsqaUBKTNV-1" source="GxpNQqLrR4lgnH7dVVDZ-8" target="GxpNQqLrR4lgnH7dVVDZ-10">
          <mxGeometry width="50" height="50" relative="1" as="geometry">
            <mxPoint x="340" y="600" as="sourcePoint" />
            <mxPoint x="388.5" y="600" as="targetPoint" />
          </mxGeometry>
        </mxCell>
        <mxCell id="JdIXmPIAXFxYYO2-05fA-1" value="&lt;font style=&quot;font-size: 14px;&quot;&gt;Scheduler&lt;br&gt;Optimizer&lt;/font&gt;" style="rounded=1;whiteSpace=wrap;html=1;" vertex="1" parent="WIyWlLk6GJQsqaUBKTNV-1">
          <mxGeometry x="360" y="115" width="90" height="50" as="geometry" />
        </mxCell>
        <mxCell id="JdIXmPIAXFxYYO2-05fA-2" value="" style="curved=1;endArrow=classic;html=1;rounded=0;labelBorderColor=none;fontSize=16;fontColor=#99FFCC;exitX=1;exitY=0.5;exitDx=0;exitDy=0;entryX=0.5;entryY=0;entryDx=0;entryDy=0;" edge="1" parent="WIyWlLk6GJQsqaUBKTNV-1" source="GxpNQqLrR4lgnH7dVVDZ-0" target="JdIXmPIAXFxYYO2-05fA-1">
          <mxGeometry width="50" height="50" relative="1" as="geometry">
            <mxPoint x="400" y="360" as="sourcePoint" />
            <mxPoint x="450" y="310" as="targetPoint" />
            <Array as="points">
              <mxPoint x="380" y="60" />
            </Array>
          </mxGeometry>
        </mxCell>
        <mxCell id="JdIXmPIAXFxYYO2-05fA-4" value="" style="endArrow=classic;rounded=0;fontSize=16;exitX=0.5;exitY=1;exitDx=0;exitDy=0;labelBorderColor=none;html=1;verticalAlign=middle;startArrow=none;startFill=0;" edge="1" parent="WIyWlLk6GJQsqaUBKTNV-1" source="GxpNQqLrR4lgnH7dVVDZ-0" target="GxpNQqLrR4lgnH7dVVDZ-2">
          <mxGeometry relative="1" as="geometry">
            <mxPoint x="560" y="80" as="sourcePoint" />
            <mxPoint x="560" y="250" as="targetPoint" />
          </mxGeometry>
        </mxCell>
        <mxCell id="JdIXmPIAXFxYYO2-05fA-5" value="Lowering" style="edgeLabel;resizable=0;html=1;align=center;verticalAlign=middle;fontSize=14;" connectable="0" vertex="1" parent="JdIXmPIAXFxYYO2-05fA-4">
          <mxGeometry relative="1" as="geometry" />
        </mxCell>
        <mxCell id="JdIXmPIAXFxYYO2-05fA-6" value="" style="curved=1;endArrow=classic;html=1;rounded=0;labelBorderColor=none;fontSize=16;fontColor=#99FFCC;exitX=0.5;exitY=1;exitDx=0;exitDy=0;entryX=1;entryY=0.5;entryDx=0;entryDy=0;" edge="1" parent="WIyWlLk6GJQsqaUBKTNV-1" source="JdIXmPIAXFxYYO2-05fA-1" target="GxpNQqLrR4lgnH7dVVDZ-2">
          <mxGeometry width="50" height="50" relative="1" as="geometry">
            <mxPoint x="520" y="165" as="sourcePoint" />
            <mxPoint x="605" y="215" as="targetPoint" />
            <Array as="points">
              <mxPoint x="400" y="210" />
            </Array>
          </mxGeometry>
        </mxCell>
        <mxCell id="JdIXmPIAXFxYYO2-05fA-7" value="" style="endArrow=classic;rounded=0;fontSize=16;exitX=0.5;exitY=1;exitDx=0;exitDy=0;labelBorderColor=none;html=1;verticalAlign=middle;startArrow=none;startFill=0;entryX=0.5;entryY=0;entryDx=0;entryDy=0;" edge="1" parent="WIyWlLk6GJQsqaUBKTNV-1" source="GxpNQqLrR4lgnH7dVVDZ-2" target="GxpNQqLrR4lgnH7dVVDZ-8">
          <mxGeometry relative="1" as="geometry">
            <mxPoint x="274.5" y="250" as="sourcePoint" />
            <mxPoint x="275" y="350" as="targetPoint" />
          </mxGeometry>
        </mxCell>
        <mxCell id="JdIXmPIAXFxYYO2-05fA-8" value="Manage" style="edgeLabel;resizable=0;html=1;align=center;verticalAlign=middle;fontSize=14;" connectable="0" vertex="1" parent="JdIXmPIAXFxYYO2-05fA-7">
          <mxGeometry relative="1" as="geometry" />
        </mxCell>
        <mxCell id="JdIXmPIAXFxYYO2-05fA-11" value="" style="rounded=1;whiteSpace=wrap;html=1;fontSize=14;fontColor=#99FFCC;fillColor=none;dashed=1;shadow=0;sketch=0;glass=0;" vertex="1" parent="WIyWlLk6GJQsqaUBKTNV-1">
          <mxGeometry x="50" y="480" width="440" height="110" as="geometry" />
        </mxCell>
        <mxCell id="JdIXmPIAXFxYYO2-05fA-12" value="ActorModel / CSP" style="text;html=1;align=center;verticalAlign=middle;resizable=0;points=[];autosize=1;strokeColor=none;fillColor=none;fontSize=14;fontColor=#000000;" vertex="1" parent="WIyWlLk6GJQsqaUBKTNV-1">
          <mxGeometry x="20" y="460" width="130" height="20" as="geometry" />
        </mxCell>
        <mxCell id="JdIXmPIAXFxYYO2-05fA-13" value="" style="endArrow=none;dashed=1;html=1;" edge="1" parent="WIyWlLk6GJQsqaUBKTNV-1">
          <mxGeometry width="50" height="50" relative="1" as="geometry">
            <mxPoint y="170" as="sourcePoint" />
            <mxPoint x="560" y="170" as="targetPoint" />
          </mxGeometry>
        </mxCell>
        <mxCell id="JdIXmPIAXFxYYO2-05fA-14" value="&lt;b&gt;&lt;font style=&quot;font-size: 17px;&quot;&gt;Buffuer&lt;/font&gt;&lt;/b&gt;" style="text;html=1;align=center;verticalAlign=middle;resizable=0;points=[];autosize=1;strokeColor=none;fillColor=none;" vertex="1" parent="WIyWlLk6GJQsqaUBKTNV-1">
          <mxGeometry x="10" y="180" width="80" height="20" as="geometry" />
        </mxCell>
        <mxCell id="JdIXmPIAXFxYYO2-05fA-15" value="&lt;b&gt;&lt;font style=&quot;font-size: 17px;&quot;&gt;Tensor&lt;br&gt;&lt;/font&gt;&lt;/b&gt;" style="text;html=1;align=center;verticalAlign=middle;resizable=0;points=[];autosize=1;strokeColor=none;fillColor=none;" vertex="1" parent="WIyWlLk6GJQsqaUBKTNV-1">
          <mxGeometry x="10" y="140" width="70" height="20" as="geometry" />
        </mxCell>
      </root>
    </mxGraphModel>
  </diagram>
  <diagram id="soVk92ZErdhQjfOdM-VE" name="quadrant">
    <mxGraphModel dx="1055" dy="675" grid="1" gridSize="10" guides="1" tooltips="1" connect="1" arrows="1" fold="1" page="1" pageScale="1" pageWidth="827" pageHeight="1169" math="0" shadow="0">
      <root>
        <mxCell id="0" />
        <mxCell id="1" parent="0" />
        <mxCell id="UeynZ63uCsjoUwef6pp8-1" value="" style="endArrow=classic;html=1;exitX=0.5;exitY=1;exitDx=0;exitDy=0;" edge="1" parent="1">
          <mxGeometry width="50" height="50" relative="1" as="geometry">
            <mxPoint x="159" y="320" as="sourcePoint" />
            <mxPoint x="640" y="320" as="targetPoint" />
            <Array as="points" />
          </mxGeometry>
        </mxCell>
        <mxCell id="UeynZ63uCsjoUwef6pp8-2" value="" style="endArrow=classic;html=1;" edge="1" parent="1">
          <mxGeometry width="50" height="50" relative="1" as="geometry">
            <mxPoint x="400" y="520" as="sourcePoint" />
            <mxPoint x="400" y="120" as="targetPoint" />
            <Array as="points" />
          </mxGeometry>
        </mxCell>
        <mxCell id="UeynZ63uCsjoUwef6pp8-3" value="&lt;b&gt;&lt;font style=&quot;font-size: 19px;&quot;&gt;TroubleShooting&lt;/font&gt;&lt;/b&gt;" style="text;html=1;align=center;verticalAlign=middle;resizable=0;points=[];autosize=1;strokeColor=none;fillColor=none;fontSize=17;" vertex="1" parent="1">
          <mxGeometry x="10" y="280" width="170" height="30" as="geometry" />
        </mxCell>
        <mxCell id="UeynZ63uCsjoUwef6pp8-4" value="&lt;font style=&quot;font-size: 16px;&quot;&gt;Hard&lt;/font&gt;" style="text;html=1;align=center;verticalAlign=middle;resizable=0;points=[];autosize=1;strokeColor=none;fillColor=none;fontSize=19;" vertex="1" parent="1">
          <mxGeometry x="130" y="325" width="50" height="30" as="geometry" />
        </mxCell>
        <mxCell id="UeynZ63uCsjoUwef6pp8-5" value="&lt;font style=&quot;font-size: 16px;&quot;&gt;Easy&lt;/font&gt;" style="text;html=1;align=center;verticalAlign=middle;resizable=0;points=[];autosize=1;strokeColor=none;fillColor=none;fontSize=19;" vertex="1" parent="1">
          <mxGeometry x="610" y="325" width="50" height="30" as="geometry" />
        </mxCell>
        <mxCell id="UeynZ63uCsjoUwef6pp8-6" value="&lt;font style=&quot;font-size: 16px;&quot;&gt;High&lt;/font&gt;" style="text;html=1;align=center;verticalAlign=middle;resizable=0;points=[];autosize=1;strokeColor=none;fillColor=none;fontSize=19;" vertex="1" parent="1">
          <mxGeometry x="405" y="100" width="50" height="30" as="geometry" />
        </mxCell>
        <mxCell id="UeynZ63uCsjoUwef6pp8-7" value="&lt;font style=&quot;font-size: 16px;&quot;&gt;Low&lt;br&gt;&lt;/font&gt;" style="text;html=1;align=center;verticalAlign=middle;resizable=0;points=[];autosize=1;strokeColor=none;fillColor=none;fontSize=19;" vertex="1" parent="1">
          <mxGeometry x="410" y="500" width="40" height="30" as="geometry" />
        </mxCell>
        <mxCell id="UeynZ63uCsjoUwef6pp8-8" value="Threads &amp;amp; Locks" style="text;html=1;align=center;verticalAlign=middle;resizable=0;points=[];autosize=1;strokeColor=none;fillColor=none;fontSize=16;" vertex="1" parent="1">
          <mxGeometry x="130" y="450" width="140" height="20" as="geometry" />
        </mxCell>
        <mxCell id="UeynZ63uCsjoUwef6pp8-9" value="Transactional Memory" style="text;html=1;align=center;verticalAlign=middle;resizable=0;points=[];autosize=1;strokeColor=none;fillColor=none;fontSize=16;" vertex="1" parent="1">
          <mxGeometry x="530" y="200" width="170" height="20" as="geometry" />
        </mxCell>
        <mxCell id="UeynZ63uCsjoUwef6pp8-10" value="Actor Model" style="text;html=1;align=center;verticalAlign=middle;resizable=0;points=[];autosize=1;strokeColor=none;fillColor=none;fontSize=16;rotation=0;" vertex="1" parent="1">
          <mxGeometry x="530" y="260" width="100" height="20" as="geometry" />
        </mxCell>
        <mxCell id="UeynZ63uCsjoUwef6pp8-11" value="MapReduce" style="text;html=1;align=center;verticalAlign=middle;resizable=0;points=[];autosize=1;strokeColor=none;fillColor=none;fontSize=16;" vertex="1" parent="1">
          <mxGeometry x="200" y="350" width="100" height="20" as="geometry" />
        </mxCell>
        <mxCell id="UeynZ63uCsjoUwef6pp8-12" value="Event-driven Model" style="text;html=1;align=center;verticalAlign=middle;resizable=0;points=[];autosize=1;strokeColor=none;fillColor=none;fontSize=16;" vertex="1" parent="1">
          <mxGeometry x="420" y="410" width="150" height="20" as="geometry" />
        </mxCell>
        <mxCell id="UeynZ63uCsjoUwef6pp8-13" value="Grid Computing" style="text;html=1;align=center;verticalAlign=middle;resizable=0;points=[];autosize=1;strokeColor=none;fillColor=none;fontSize=16;" vertex="1" parent="1">
          <mxGeometry x="220" y="200" width="130" height="20" as="geometry" />
        </mxCell>
        <mxCell id="UeynZ63uCsjoUwef6pp8-14" value="CSP" style="text;html=1;align=center;verticalAlign=middle;resizable=0;points=[];autosize=1;strokeColor=none;fillColor=none;fontSize=16;" vertex="1" parent="1">
          <mxGeometry x="520" y="460" width="50" height="20" as="geometry" />
        </mxCell>
        <mxCell id="UeynZ63uCsjoUwef6pp8-15" value="Structured Concurrency" style="text;html=1;align=center;verticalAlign=middle;resizable=0;points=[];autosize=1;strokeColor=none;fillColor=none;fontSize=16;" vertex="1" parent="1">
          <mxGeometry x="355" y="170" width="180" height="20" as="geometry" />
        </mxCell>
        <mxCell id="UeynZ63uCsjoUwef6pp8-16" value="Async-io &amp;amp; Future" style="text;html=1;align=center;verticalAlign=middle;resizable=0;points=[];autosize=1;strokeColor=none;fillColor=none;fontSize=16;" vertex="1" parent="1">
          <mxGeometry x="355" y="345" width="140" height="20" as="geometry" />
        </mxCell>
        <mxCell id="cV-ll6Z-VPOYGcU5f_6I-1" value="&lt;b&gt;&lt;font style=&quot;font-size: 19px;&quot;&gt;Realiztion Difficulty&lt;/font&gt;&lt;/b&gt;" style="text;html=1;align=center;verticalAlign=middle;resizable=0;points=[];autosize=1;strokeColor=none;fillColor=none;fontSize=17;" vertex="1" parent="1">
          <mxGeometry x="205" y="100" width="190" height="30" as="geometry" />
        </mxCell>
        <mxCell id="cV-ll6Z-VPOYGcU5f_6I-2" value="" style="shape=waypoint;sketch=0;fillStyle=solid;size=6;pointerEvents=1;points=[];fillColor=none;resizable=0;rotatable=0;perimeter=centerPerimeter;snapToPoint=1;fontSize=16;" vertex="1" parent="1">
          <mxGeometry x="555" y="230" width="40" height="40" as="geometry" />
        </mxCell>
        <mxCell id="cV-ll6Z-VPOYGcU5f_6I-3" value="" style="shape=waypoint;sketch=0;fillStyle=solid;size=6;pointerEvents=1;points=[];fillColor=none;resizable=0;rotatable=0;perimeter=centerPerimeter;snapToPoint=1;fontSize=16;" vertex="1" parent="1">
          <mxGeometry x="420" y="140" width="40" height="40" as="geometry" />
        </mxCell>
        <mxCell id="cV-ll6Z-VPOYGcU5f_6I-4" value="" style="shape=waypoint;sketch=0;fillStyle=solid;size=6;pointerEvents=1;points=[];fillColor=none;resizable=0;rotatable=0;perimeter=centerPerimeter;snapToPoint=1;fontSize=16;" vertex="1" parent="1">
          <mxGeometry x="260" y="170" width="40" height="40" as="geometry" />
        </mxCell>
        <mxCell id="cV-ll6Z-VPOYGcU5f_6I-5" value="" style="shape=waypoint;sketch=0;fillStyle=solid;size=6;pointerEvents=1;points=[];fillColor=none;resizable=0;rotatable=0;perimeter=centerPerimeter;snapToPoint=1;fontSize=16;" vertex="1" parent="1">
          <mxGeometry x="230" y="325" width="40" height="40" as="geometry" />
        </mxCell>
        <mxCell id="cV-ll6Z-VPOYGcU5f_6I-6" value="" style="shape=waypoint;sketch=0;fillStyle=solid;size=6;pointerEvents=1;points=[];fillColor=none;resizable=0;rotatable=0;perimeter=centerPerimeter;snapToPoint=1;fontSize=16;" vertex="1" parent="1">
          <mxGeometry x="180" y="420" width="40" height="40" as="geometry" />
        </mxCell>
        <mxCell id="cV-ll6Z-VPOYGcU5f_6I-9" value="" style="shape=waypoint;sketch=0;fillStyle=solid;size=6;pointerEvents=1;points=[];fillColor=none;resizable=0;rotatable=0;perimeter=centerPerimeter;snapToPoint=1;fontSize=16;" vertex="1" parent="1">
          <mxGeometry x="590" y="170" width="40" height="40" as="geometry" />
        </mxCell>
        <mxCell id="cV-ll6Z-VPOYGcU5f_6I-12" value="" style="shape=waypoint;sketch=0;fillStyle=solid;size=6;pointerEvents=1;points=[];fillColor=none;resizable=0;rotatable=0;perimeter=centerPerimeter;snapToPoint=1;fontSize=16;" vertex="1" parent="1">
          <mxGeometry x="405" y="320" width="40" height="40" as="geometry" />
        </mxCell>
        <mxCell id="cV-ll6Z-VPOYGcU5f_6I-13" value="" style="shape=waypoint;sketch=0;fillStyle=solid;size=6;pointerEvents=1;points=[];fillColor=none;resizable=0;rotatable=0;perimeter=centerPerimeter;snapToPoint=1;fontSize=16;" vertex="1" parent="1">
          <mxGeometry x="470" y="380" width="40" height="40" as="geometry" />
        </mxCell>
        <mxCell id="cV-ll6Z-VPOYGcU5f_6I-14" value="" style="shape=waypoint;sketch=0;fillStyle=solid;size=6;pointerEvents=1;points=[];fillColor=none;resizable=0;rotatable=0;perimeter=centerPerimeter;snapToPoint=1;fontSize=16;" vertex="1" parent="1">
          <mxGeometry x="520" y="430" width="40" height="40" as="geometry" />
        </mxCell>
      </root>
    </mxGraphModel>
  </diagram>
</mxfile>
